<?xml version="1.0" standalone="no"?>
<!DOCTYPE svg PUBLIC "-//W3C//DTD SVG 20010904//EN"
 "http://www.w3.org/TR/2001/REC-SVG-20010904/DTD/svg10.dtd">
<svg version="1.0" xmlns="http://www.w3.org/2000/svg"
 width="260.000000pt" height="260.000000pt" viewBox="0 0 260.000000 260.000000"
 preserveAspectRatio="xMidYMid meet">
<metadata>
Created by potrace 1.14, written by Peter Selinger 2001-2017
</metadata>
<g transform="translate(0.000000,260.000000) scale(0.100000,-0.100000)"
fill="#000000" stroke="none">
<path d="M1990 2595 c0 -7 30 -13 34 -7 3 4 -4 9 -15 9 -10 1 -19 0 -19 -2z"/>
<path d="M2130 2583 c0 -10 4 -14 8 -8 4 6 11 13 16 18 5 4 2 7 -7 7 -10 0
-17 -8 -17 -17z"/>
<path d="M2181 2584 c0 -11 3 -14 6 -6 3 7 2 16 -1 19 -3 4 -6 -2 -5 -13z"/>
<path d="M2200 2591 c0 -5 9 -7 20 -4 11 3 20 7 20 9 0 2 -9 4 -20 4 -11 0
-20 -4 -20 -9z"/>
<path d="M2253 2585 c0 -8 4 -12 9 -9 4 3 8 9 8 15 0 5 -4 9 -8 9 -5 0 -9 -7
-9 -15z"/>
<path d="M2306 2580 c12 -11 18 -12 21 -2 3 6 9 10 13 7 5 -3 12 -1 15 5 4 7
-6 10 -29 8 -33 -2 -35 -3 -20 -18z"/>
<path d="M2386 2591 c-3 -5 1 -14 8 -20 11 -9 16 -9 22 0 4 7 3 9 -4 5 -6 -3
-13 -2 -16 3 -4 5 4 12 16 14 23 4 23 4 1 6 -12 0 -24 -3 -27 -8z"/>
<path d="M2440 2590 c0 -5 5 -10 10 -10 6 0 10 5 10 10 0 6 -4 10 -10 10 -5 0
-10 -4 -10 -10z"/>
<path d="M2470 2591 c0 -6 5 -13 12 -17 7 -4 8 -3 4 4 -4 7 -3 12 3 12 5 0 11
-5 13 -10 4 -12 48 -23 48 -12 0 4 -5 14 -10 22 -8 12 -10 12 -10 -5 -1 -19
-1 -19 -14 -2 -14 18 -46 24 -46 8z"/>
<path d="M2555 2591 c6 -11 45 -10 45 1 0 4 -12 8 -26 8 -14 0 -23 -4 -19 -9z"/>
<path d="M1195 2194 c-222 -36 -443 -157 -571 -312 -106 -129 -146 -198 -177
-311 -27 -96 -30 -121 -31 -261 -1 -134 2 -166 22 -235 115 -401 466 -665 883
-665 168 0 322 43 472 131 99 58 258 220 314 319 91 163 134 365 113 536 -16
136 -31 180 -140 420 -10 23 -32 52 -50 65 -17 13 -59 48 -93 78 -122 105
-251 175 -392 212 -79 20 -282 33 -350 23z m270 -79 c47 -9 121 -29 164 -45
86 -33 210 -111 257 -162 l31 -33 -106 -297 c-58 -163 -109 -294 -112 -290 -6
6 -83 226 -201 575 l-20 57 -166 0 -167 0 -110 -310 c-60 -171 -112 -310 -116
-310 -3 0 -51 129 -108 286 l-102 287 23 24 c33 36 134 106 198 138 171 86
348 112 535 80z m686 -696 c14 -88 6 -228 -16 -319 -24 -94 -96 -236 -160
-313 -386 -468 -1119 -398 -1404 134 -78 146 -110 311 -90 471 6 51 14 99 18
105 4 7 61 -146 128 -340 l121 -352 168 0 168 0 17 45 c8 25 28 80 43 123 l28
78 142 -3 141 -3 44 -123 44 -122 161 2 161 3 71 195 c39 107 97 269 129 359
39 110 61 158 66 148 5 -8 14 -47 20 -88z m-783 -133 c29 -80 52 -150 52 -155
0 -7 -39 -11 -111 -11 -84 0 -110 3 -107 13 11 44 104 297 109 297 3 0 29 -65
57 -144z"/>
</g>
</svg>
