<?xml version="1.0" encoding="UTF-8" standalone="no"?> <svg width="64" height="64" viewBox="0 0 64 64" fill="none" xmlns="http://www.w3.org/2000/svg">
<path d="M11 12.2598H52.48C52.8778 12.2598 53.2594 12.1017 53.5407 11.8204C53.822 11.5391 53.98 11.1576 53.98 10.7598C53.98 10.3619 53.822 9.98041 53.5407 9.69911C53.2594 9.4178 52.8778 9.25977 52.48 9.25977H11C10.6022 9.25977 10.2206 9.4178 9.93934 9.69911C9.65804 9.98041 9.5 10.3619 9.5 10.7598C9.5 11.1576 9.65804 11.5391 9.93934 11.8204C10.2206 12.1017 10.6022 12.2598 11 12.2598V12.2598Z" fill="black"/>
<path d="M11 22.9199H35.89C36.2878 22.9199 36.6694 22.7619 36.9507 22.4806C37.232 22.1993 37.39 21.8177 37.39 21.4199C37.39 21.0221 37.232 20.6406 36.9507 20.3593C36.6694 20.078 36.2878 19.9199 35.89 19.9199H11C10.6022 19.9199 10.2206 20.078 9.93934 20.3593C9.65804 20.6406 9.5 21.0221 9.5 21.4199C9.5 21.8177 9.65804 22.1993 9.93934 22.4806C10.2206 22.7619 10.6022 22.9199 11 22.9199Z" fill="black"/>
<path d="M11 33.5801H52.48C52.8778 33.5801 53.2594 33.422 53.5407 33.1407C53.822 32.8594 53.98 32.4779 53.98 32.0801C53.98 31.6823 53.822 31.3007 53.5407 31.0194C53.2594 30.7381 52.8778 30.5801 52.48 30.5801H11C10.6022 30.5801 10.2206 30.7381 9.93934 31.0194C9.65804 31.3007 9.5 31.6823 9.5 32.0801C9.5 32.4779 9.65804 32.8594 9.93934 33.1407C10.2206 33.422 10.6022 33.5801 11 33.5801Z" fill="black"/>
<path d="M53 51.7402H11.52C11.1222 51.7402 10.7407 51.8983 10.4594 52.1796C10.1781 52.4609 10.02 52.8424 10.02 53.2402C10.02 53.6381 10.1781 54.0196 10.4594 54.3009C10.7407 54.5822 11.1222 54.7402 11.52 54.7402H53C53.3978 54.7402 53.7794 54.5822 54.0607 54.3009C54.342 54.0196 54.5 53.6381 54.5 53.2402C54.5 52.8424 54.342 52.4609 54.0607 52.1796C53.7794 51.8983 53.3978 51.7402 53 51.7402V51.7402Z" fill="black"/>
<path d="M35.89 44.2402C36.2878 44.2402 36.6694 44.0822 36.9507 43.8009C37.232 43.5196 37.39 43.1381 37.39 42.7402C37.39 42.3424 37.232 41.9609 36.9507 41.6796C36.6694 41.3983 36.2878 41.2402 35.89 41.2402H11C10.6022 41.2402 10.2206 41.3983 9.93934 41.6796C9.65804 41.9609 9.5 42.3424 9.5 42.7402C9.5 43.1381 9.65804 43.5196 9.93934 43.8009C10.2206 44.0822 10.6022 44.2402 11 44.2402H35.89Z" fill="black"/>
</svg>
